<svg width="24" height="24" viewBox="0 0 24 24" fill="none" xmlns="http://www.w3.org/2000/svg">
<g>
<g>
<path d="M12 6.77441C12.406 6.77441 12.7351 7.10379 12.7354 7.50977V9.7168H14.9414C15.3476 9.7168 15.6768 10.046 15.6768 10.4521C15.6766 10.8582 15.3475 11.1875 14.9414 11.1875H12.7354V13.3936C12.7354 13.7997 12.4062 14.1289 12 14.1289C11.5938 14.1289 11.2646 13.7997 11.2646 13.3936V11.1875H9.05859C8.6525 11.1875 8.32336 10.8582 8.32324 10.4521C8.32324 10.046 8.65242 9.7168 9.05859 9.7168H11.2646V7.50977C11.2649 7.10379 11.594 6.77441 12 6.77441Z" fill="#282848"/>
<path fill-rule="evenodd" clip-rule="evenodd" d="M19 3C19.7293 3 20.4286 3.2786 20.9443 3.77441C21.4601 4.2703 21.75 4.94324 21.75 5.64453V15.2598C21.75 15.9609 21.4599 16.6331 20.9443 17.1289C20.4286 17.6248 19.7293 17.9043 19 17.9043H7.31055L3.53027 21.5391C3.31579 21.7452 2.99306 21.8069 2.71289 21.6953C2.43282 21.5837 2.25018 21.3208 2.25 21.0293V5.64453C2.25 4.94324 2.53994 4.2703 3.05566 3.77441C3.57138 3.2786 4.27072 3 5 3H19ZM5 4.44238C4.66848 4.44238 4.35063 4.56952 4.11621 4.79492C3.88194 5.0203 3.75 5.32587 3.75 5.64453V19.2881L6.46973 16.6729L6.58398 16.583C6.70628 16.5046 6.85085 16.4619 7 16.4619H19C19.3315 16.4619 19.6494 16.3348 19.8838 16.1094C20.1182 15.884 20.25 15.5785 20.25 15.2598V5.64453C20.25 5.32587 20.1181 5.0203 19.8838 4.79492C19.6494 4.56952 19.3315 4.44238 19 4.44238H5Z" fill="#282848"/>
</g>
</g>
</svg>
