<svg xmlns="http://www.w3.org/2000/svg" width="19" height="18" viewBox="0 0 19 18" fill="none">
  <path d="M0 14.822V3.01025C0.000143849 1.3459 1.3459 0.000145342 3.01025 0H11.198C12.8624 8.0962e-05 14.2081 1.34586 14.2083 3.01025H12.7083C12.7081 2.17429 12.034 1.50008 11.198 1.5H3.01025C2.17433 1.50014 1.50014 2.17433 1.5 3.01025V14.822L1.50806 14.9766C1.58524 15.7395 2.22653 16.3321 3.01025 16.3323H11.198C12.034 16.3322 12.7081 15.658 12.7083 14.822H14.2083C14.2081 16.4864 12.8624 17.8322 11.198 17.8323H3.01025C1.39774 17.8321 0.0840401 16.5689 0.00366211 14.9766L0 14.822Z" fill="#F95959"/>
  <path d="M6.12231 5.86271L6.19849 5.86637C6.57676 5.9047 6.87231 6.22432 6.87231 6.61271C6.87231 7.00109 6.57676 7.32071 6.19849 7.35904L6.12231 7.36271H3.21533C2.80112 7.36271 2.46533 7.02692 2.46533 6.61271C2.46533 6.19849 2.80112 5.86271 3.21533 5.86271H6.12231Z" fill="#F95959"/>
  <path d="M6.12231 8.48177L6.19849 8.48543C6.57676 8.52376 6.87231 8.84339 6.87231 9.23177C6.87231 9.62015 6.57676 9.93977 6.19849 9.97811L6.12231 9.98177H3.21533C2.80112 9.98177 2.46533 9.64598 2.46533 9.23177C2.46533 8.81755 2.80112 8.48177 3.21533 8.48177H6.12231Z" fill="#F95959"/>
  <path d="M6.12231 11.1127L6.19849 11.1164C6.57676 11.1547 6.87231 11.4743 6.87231 11.8627C6.87231 12.2511 6.57676 12.5707 6.19849 12.609L6.12231 12.6127H3.21533C2.80112 12.6127 2.46533 12.2769 2.46533 11.8627C2.46533 11.4485 2.80112 11.1127 3.21533 11.1127H6.12231Z" fill="#F95959"/>
  <path d="M17.1994 8.91617C17.1994 6.74155 15.4365 4.97867 13.2619 4.97867C11.0873 4.97867 9.32437 6.74155 9.32437 8.91617C9.32437 11.0908 11.0873 12.8537 13.2619 12.8537V14.3537C10.2588 14.3537 7.82437 11.9192 7.82437 8.91617C7.82437 5.91312 10.2588 3.47867 13.2619 3.47867C16.2649 3.47867 18.6994 5.91312 18.6994 8.91617C18.6994 11.9192 16.2649 14.3537 13.2619 14.3537V12.8537C15.4365 12.8537 17.1994 11.0908 17.1994 8.91617Z" fill="#F95959"/>
  <path d="M14.3799 6.86941C14.6362 6.61313 15.0523 6.61313 15.3086 6.86941C15.5649 7.1257 15.5649 7.54184 15.3086 7.79813L12.1438 10.9629C11.8875 11.2192 11.4714 11.2192 11.2151 10.9629C10.9588 10.7066 10.9588 10.2905 11.2151 10.0342L14.3799 6.86941Z" fill="#F95959"/>
  <path d="M11.2151 6.86941C11.4555 6.62908 11.8363 6.6143 12.094 6.82474L12.1438 6.86941L15.3086 10.0342L15.3533 10.084C15.5637 10.3418 15.549 10.7226 15.3086 10.9629C15.0683 11.2033 14.6875 11.218 14.4297 11.0076L14.3799 10.9629L11.2151 7.79813L11.1704 7.74832C10.96 7.49056 10.9748 7.10975 11.2151 6.86941Z" fill="#F95959"/>
</svg>