<svg width="18" height="18" viewBox="0 0 18 18" fill="none" xmlns="http://www.w3.org/2000/svg">
<path fill-rule="evenodd" clip-rule="evenodd" d="M16.5 6C16.5 6.41421 16.1642 6.75 15.75 6.75L13.5 6.75C12.9033 6.75 12.331 6.51295 11.909 6.09099C11.4871 5.66903 11.25 5.09674 11.25 4.5V2.25C11.25 1.83579 11.5858 1.5 12 1.5C12.4142 1.5 12.75 1.83579 12.75 2.25V4.5C12.75 4.69891 12.829 4.88968 12.9697 5.03033C13.1103 5.17098 13.3011 5.25 13.5 5.25L15.75 5.25C16.1642 5.25 16.5 5.58579 16.5 6ZM16.5 12C16.5 12.4142 16.1642 12.75 15.75 12.75L13.5 12.75C13.3011 12.75 13.1103 12.829 12.9697 12.9697C12.829 13.1103 12.75 13.3011 12.75 13.5V15.75C12.75 16.1642 12.4142 16.5 12 16.5C11.5858 16.5 11.25 16.1642 11.25 15.75V13.5C11.25 12.9033 11.4871 12.331 11.909 11.909C12.331 11.4871 12.9033 11.25 13.5 11.25L15.75 11.25C16.1642 11.25 16.5 11.5858 16.5 12ZM6 1.5C6.41421 1.5 6.75 1.83579 6.75 2.25V4.5C6.75 5.09674 6.51295 5.66903 6.09099 6.09099C5.66903 6.51295 5.09674 6.75 4.5 6.75L2.25 6.75C1.83579 6.75 1.5 6.41421 1.5 6C1.5 5.58579 1.83579 5.25 2.25 5.25L4.5 5.25C4.69891 5.25 4.88968 5.17098 5.03033 5.03033C5.17098 4.88968 5.25 4.69891 5.25 4.5V2.25C5.25 1.83579 5.58579 1.5 6 1.5ZM5.25 13.5C5.25 13.3011 5.17098 13.1103 5.03033 12.9697C4.88968 12.829 4.69891 12.75 4.5 12.75L2.25 12.75C1.83579 12.75 1.5 12.4142 1.5 12C1.5 11.5858 1.83579 11.25 2.25 11.25L4.5 11.25C5.09674 11.25 5.66903 11.4871 6.09099 11.909C6.51295 12.331 6.75 12.9033 6.75 13.5V15.75C6.75 16.1642 6.41421 16.5 6 16.5C5.58579 16.5 5.25 16.1642 5.25 15.75V13.5Z" fill="#7E7E91"/>
</svg>
