<svg width="24" height="24" viewBox="0 0 24 24" fill="none" xmlns="http://www.w3.org/2000/svg">
<g>
<path fill-rule="evenodd" clip-rule="evenodd" d="M12.9492 2.9305C14.0336 1.88309 15.4861 1.30352 16.9937 1.31662C18.5013 1.32972 19.9435 1.93445 21.0096 3.00054C22.0757 4.06664 22.6804 5.50881 22.6935 7.01644C22.7066 8.52407 22.1271 9.97654 21.0797 11.061L21.0706 11.0704L18.0706 14.0702C18.0706 14.0702 18.0707 14.0702 18.0706 14.0702C17.4877 14.6533 16.7861 15.1043 16.0137 15.3924C15.2411 15.6806 14.4157 15.7993 13.5933 15.7404C12.7709 15.6815 11.9707 15.4464 11.2472 15.0511C10.5236 14.6558 9.89349 14.1094 9.39962 13.4492C9.15151 13.1175 9.21927 12.6475 9.55096 12.3994C9.88265 12.1513 10.3527 12.219 10.6008 12.5507C10.9658 13.0387 11.4315 13.4425 11.9663 13.7347C12.5011 14.0269 13.0925 14.2007 13.7004 14.2442C14.3083 14.2877 14.9184 14.2 15.4894 13.987C16.0604 13.774 16.5789 13.4407 17.0098 13.0097L20.0051 10.0144C20.7765 9.21336 21.2033 8.14173 21.1936 7.02948C21.1839 5.91514 20.7369 4.84919 19.949 4.0612C19.161 3.27322 18.095 2.82625 16.9807 2.81657C15.8681 2.8069 14.7961 3.23393 13.995 4.00582L12.279 5.71184C11.9852 6.00388 11.5104 6.00249 11.2183 5.70875C10.9263 5.415 10.9277 4.94013 11.2214 4.64809L12.9492 2.9305ZM7.98673 8.60743C8.75925 8.31926 9.58471 8.2006 10.4071 8.2595C11.2295 8.3184 12.0297 8.55348 12.7532 8.9488C13.4768 9.34412 14.1069 9.89043 14.6008 10.5507C14.8489 10.8824 14.7811 11.3524 14.4494 11.6005C14.1177 11.8486 13.6477 11.7808 13.3996 11.4492C13.0346 10.9611 12.5689 10.5573 12.0341 10.2652C11.4992 9.97296 10.9078 9.7992 10.3 9.75567C9.6921 9.71213 9.08198 9.79984 8.51098 10.0128C7.93999 10.2258 7.42148 10.5591 6.99063 10.9902L3.99535 13.9854C3.2239 14.7865 2.79714 15.8581 2.8068 16.9704C2.81648 18.0847 3.26345 19.1507 4.05144 19.9387C4.83942 20.7267 5.90538 21.1736 7.01971 21.1833C8.13196 21.193 9.20359 20.7662 10.0047 19.9948L11.7099 18.2896C12.0028 17.9967 12.4776 17.9967 12.7705 18.2896C13.0634 18.5825 13.0634 19.0574 12.7705 19.3502L11.0513 21.0695C9.96685 22.1169 8.51431 22.6964 7.00668 22.6833C5.49904 22.6702 4.05687 22.0654 2.99078 20.9993C1.92468 19.9332 1.31996 18.4911 1.30686 16.9834C1.29376 15.4758 1.87332 14.0233 2.92073 12.9389L2.92979 12.9295L5.92977 9.92968C5.92974 9.92971 5.92981 9.92965 5.92977 9.92968C6.51267 9.3466 7.21425 8.89559 7.98673 8.60743Z" fill="#282848"/>
<path fill-rule="evenodd" clip-rule="evenodd" d="M2.08344 2.57318C2.37633 2.28028 2.85121 2.28028 3.1441 2.57318L5.2647 4.69378L4.73509 5.22483L4.20474 5.75514L2.08344 3.63384C1.79055 3.34094 1.79055 2.86607 2.08344 2.57318ZM5.26542 5.75516C4.97253 6.04805 4.49764 6.04804 4.20474 5.75514L4.73509 5.22483L5.26542 4.6945C5.55831 4.98739 5.55831 5.46226 5.26542 5.75516Z" fill="#282848"/>
<path fill-rule="evenodd" clip-rule="evenodd" d="M21.1324 21.7935C20.8395 22.0864 20.3646 22.0864 20.0717 21.7935L17.9511 19.6729L18.4807 19.1419L19.0111 18.6116L21.1324 20.7329C21.4253 21.0258 21.4253 21.5006 21.1324 21.7935ZM17.9504 18.6115C18.2433 18.3186 18.7182 18.3187 19.0111 18.6116L18.4807 19.1419L17.9504 19.6722C17.6575 19.3793 17.6575 18.9044 17.9504 18.6115Z" fill="#282848"/>
<path fill-rule="evenodd" clip-rule="evenodd" d="M7.16699 1.25C7.58121 1.25 7.91699 1.58579 7.91699 2L7.91699 4.99898L7.16699 5L6.41699 4.99998L6.41699 2C6.41699 1.58579 6.75278 1.25 7.16699 1.25ZM7.16699 5.75C6.75278 5.75 6.41699 5.41419 6.41699 4.99998L7.16699 5L7.91699 5C7.91699 5.41421 7.58121 5.75 7.16699 5.75Z" fill="#282848"/>
<path fill-rule="evenodd" clip-rule="evenodd" d="M16.0488 23.1167C15.6346 23.1167 15.2988 22.7809 15.2988 22.3667L15.2988 19.3677L16.0488 19.3667L16.7988 19.3667L16.7988 22.3667C16.7988 22.7809 16.463 23.1167 16.0488 23.1167ZM16.0488 18.6167C16.463 18.6167 16.7988 18.9525 16.7988 19.3667L16.0488 19.3667L15.2988 19.3667C15.2988 18.9525 15.6346 18.6167 16.0488 18.6167Z" fill="#282848"/>
<path fill-rule="evenodd" clip-rule="evenodd" d="M0.674805 7.74268C0.674805 7.32846 1.01059 6.99268 1.4248 6.99268L4.42379 6.99268L4.4248 7.74268L4.42478 8.49268L1.4248 8.49268C1.01059 8.49268 0.674805 8.15689 0.674805 7.74268ZM5.1748 7.74268C5.1748 8.15689 4.839 8.49268 4.42478 8.49268L4.4248 7.74268L4.4248 6.99268C4.83902 6.99268 5.1748 7.32846 5.1748 7.74268Z" fill="#282848"/>
<path fill-rule="evenodd" clip-rule="evenodd" d="M22.541 16.624C22.541 17.0382 22.2052 17.374 21.791 17.374L18.792 17.374L18.791 16.624L18.791 15.874L21.791 15.874C22.2052 15.874 22.541 16.2098 22.541 16.624ZM18.041 16.624C18.041 16.2098 18.3768 15.874 18.791 15.874L18.791 16.624L18.791 17.374C18.3768 17.374 18.041 17.0382 18.041 16.624Z" fill="#282848"/>
</g>
</svg>
