<svg width="18" height="18" viewBox="0 0 18 18" fill="none" xmlns="http://www.w3.org/2000/svg">
<path d="M9 5.08081C9.30452 5.08081 9.55134 5.32784 9.55151 5.63232V7.2876H11.2061C11.5107 7.2876 11.7576 7.53448 11.7576 7.83911C11.7575 8.14366 11.5106 8.39062 11.2061 8.39062H9.55151V10.0452C9.55151 10.3498 9.30463 10.5967 9 10.5967C8.69537 10.5967 8.44849 10.3498 8.44849 10.0452V8.39062H6.79395C6.48937 8.39062 6.24252 8.14366 6.24243 7.83911C6.24243 7.53448 6.48932 7.2876 6.79395 7.2876H8.44849V5.63232C8.44866 5.32784 8.69548 5.08081 9 5.08081Z" fill="#282848"/>
<path fill-rule="evenodd" clip-rule="evenodd" d="M14.25 2.25C14.797 2.25 15.3215 2.45895 15.7083 2.83081C16.095 3.20273 16.3125 3.70743 16.3125 4.2334V11.4448C16.3125 11.9707 16.095 12.4748 15.7083 12.8467C15.3215 13.2186 14.797 13.4282 14.25 13.4282H5.48291L2.64771 16.1543C2.48685 16.3089 2.24479 16.3551 2.03467 16.2715C1.82462 16.1878 1.68764 15.9906 1.6875 15.772V4.2334C1.6875 3.70743 1.90495 3.20273 2.29175 2.83081C2.67853 2.45895 3.20304 2.25 3.75 2.25H14.25ZM3.75 3.33179C3.50136 3.33179 3.26297 3.42714 3.08716 3.59619C2.91146 3.76523 2.8125 3.9944 2.8125 4.2334V14.4661L4.85229 12.5046L4.93799 12.4373C5.02971 12.3785 5.13813 12.3464 5.25 12.3464H14.25C14.4986 12.3464 14.737 12.2511 14.9128 12.082C15.0886 11.913 15.1875 11.6839 15.1875 11.4448V4.2334C15.1875 3.9944 15.0885 3.76523 14.9128 3.59619C14.737 3.42714 14.4986 3.33179 14.25 3.33179H3.75Z" fill="#282848"/>
</svg>
