<svg width="16" height="16" viewBox="0 0 16 16" fill="none" xmlns="http://www.w3.org/2000/svg">
<path fill-rule="evenodd" clip-rule="evenodd" d="M10.7195 2.01882C10.2774 1.91709 9.81901 1.90916 9.36977 1.99846C8.66983 2.13758 8.02537 2.50611 7.52228 3.05494C7.01919 3.60376 6.68137 4.3068 6.55384 5.07038C6.42631 5.83396 6.51512 6.62181 6.80844 7.32893C6.89424 7.53577 6.85363 7.77897 6.70647 7.9395L2.0998 12.965C1.92835 13.152 1.83203 13.4057 1.83203 13.6702C1.83203 13.9347 1.92835 14.1884 2.0998 14.3754C2.27125 14.5624 2.50378 14.6675 2.74624 14.6675C2.98871 14.6675 3.22124 14.5624 3.39269 14.3754L7.99936 9.34993C8.14652 9.18939 8.36944 9.14508 8.55905 9.23868C9.20724 9.55867 9.92944 9.65556 10.6294 9.51643C11.3293 9.3773 11.9738 9.00877 12.4769 8.45995C12.98 7.91113 13.3178 7.20808 13.4453 6.4445C13.5272 5.95442 13.5199 5.45435 13.4266 4.97203L11.4829 7.09245C11.2648 7.32565 10.9716 7.45625 10.6662 7.45625C10.3609 7.45625 10.0677 7.32563 9.84958 7.09243L9.84601 7.08861L8.77582 5.9211C8.56206 5.68319 8.44234 5.36331 8.44234 5.03017C8.44234 4.69703 8.56208 4.37717 8.77584 4.13926L8.77934 4.13537L10.7195 2.01882ZM9.19052 0.925217C10.0905 0.746341 11.019 0.870909 11.8524 1.28232C12.0019 1.35614 12.1087 1.50533 12.1381 1.68149C12.1676 1.85765 12.1159 2.03834 11.9998 2.16496L9.48882 4.90421C9.45901 4.93806 9.44234 4.98319 9.44234 5.03017C9.44234 5.07716 9.45901 5.12229 9.48882 5.15614L10.5508 6.31464C10.5818 6.34716 10.6232 6.36534 10.6662 6.36534C10.7093 6.36534 10.7507 6.34715 10.7817 6.31464L13.2927 3.57539C13.4088 3.44877 13.5744 3.39236 13.7359 3.42446C13.8974 3.45656 14.0341 3.57307 14.1018 3.7362C14.4789 4.64536 14.5931 5.6583 14.4291 6.64005C14.2652 7.6218 13.8308 8.52571 13.184 9.23134C12.5372 9.93697 11.7086 10.4108 10.8086 10.5897C10.0243 10.7456 9.21815 10.671 8.47225 10.3768L4.0998 15.1468C3.74081 15.5384 3.25393 15.7584 2.74624 15.7584C2.23856 15.7584 1.75168 15.5384 1.39269 15.1468C1.03371 14.7552 0.832031 14.224 0.832031 13.6702C0.832031 13.1163 1.03371 12.5852 1.39269 12.1936L5.76515 7.42362C5.49552 6.60991 5.42712 5.73052 5.57004 4.87484C5.73401 3.89309 6.16835 2.98917 6.81517 2.28355C7.462 1.57792 8.29059 1.10409 9.19052 0.925217Z" fill="#FA6B00"/>
</svg>
