<svg width="24" height="24" viewBox="0 0 24 24" fill="none" xmlns="http://www.w3.org/2000/svg">
<g>
<path d="M10.415 5.07891C10.6474 4.96287 10.9235 4.97553 11.1445 5.11211C11.3654 5.24882 11.5 5.49006 11.5 5.74981V7.99981H14.75C17.6495 7.99981 20 10.3503 20 13.2498C19.9999 16.1492 17.6494 18.4998 14.75 18.4998H10.4102C9.99601 18.4998 9.66026 18.1639 9.66016 17.7498C9.66016 17.3356 9.99594 16.9998 10.4102 16.9998H14.75C16.821 16.9998 18.4999 15.3208 18.5 13.2498C18.5 11.1787 16.8211 9.49981 14.75 9.49981H11.5V11.7498C11.4999 12.0095 11.3654 12.2509 11.1445 12.3875C10.9236 12.5239 10.6474 12.5366 10.415 12.4207L4.41504 9.42071C4.16107 9.29372 4.00015 9.03373 4 8.74981C4 8.46579 4.16104 8.20598 4.41504 8.07891L10.415 5.07891Z" fill="#282848"/>
</g>
</svg>
